<svg xmlns="http://www.w3.org/2000/svg" viewBox="0 0 60 34" width="60" height="34">
  <!-- Petit fleuron délicat : bourgeon central + volutes d'acanthe symétriques. -->
  <g fill="none" stroke="#b08d3e" stroke-width="1.3" stroke-linecap="round">
    <path d="M30 27 C 24 23 16 24 13 18 C 10.5 13 16.5 9.5 21 12.5"/>
    <path d="M30 27 C 36 23 44 24 47 18 C 49.5 13 43.5 9.5 39 12.5"/>
    <path d="M22 20 C 25 18 27 18 29 20"/>
    <path d="M38 20 C 35 18 33 18 31 20"/>
  </g>
  <g fill="#b08d3e">
    <path d="M30 7 C 26 13 26 21 30 27 C 34 21 34 13 30 7 Z"/>
    <circle cx="30" cy="30" r="2"/>
    <circle cx="9" cy="17" r="1.4"/>
    <circle cx="51" cy="17" r="1.4"/>
  </g>
</svg>
