<svg xmlns="http://www.w3.org/2000/svg" viewBox="0 0 64 64" width="64" height="64">
  <rect width="64" height="64" rx="12" fill="#5c0f24"/>
  <rect x="3.5" y="3.5" width="57" height="57" rx="9.5" fill="none" stroke="#d6bd6e" stroke-width="1.5" opacity="0.7"/>
  <g fill="#d6bd6e">
    <!-- fleur-de-lys -->
    <path d="M32 14 C 27 24 27 34 32 44 C 37 34 37 24 32 14 Z"/>
    <path d="M32 38 C 21 30 9 33 9 43 C 9 52 22 52 32 45 Z"/>
    <path d="M32 38 C 43 30 55 33 55 43 C 55 52 42 52 32 45 Z"/>
    <rect x="20" y="44" width="24" height="4.5" rx="2.25"/>
    <path d="M32 48 C 28 55 28 60 32 66 C 36 60 36 55 32 48 Z"/>
  </g>
</svg>
